<svg width="542" height="542" viewBox="0 0 542 542" fill="none" xmlns="http://www.w3.org/2000/svg">
<mask id="mask0_67_52" style="mask-type:luminance" maskUnits="userSpaceOnUse" x="101" y="-129" width="341" height="672">
<path d="M442 -129H101V542.44H442V-129Z" fill="white"/>
</mask>
<g mask="url(#mask0_67_52)">
<path d="M123.376 414.623L200.556 375.467C214.741 399.742 239.395 411.879 274.527 411.879C290.854 411.879 306.012 406.456 320.018 395.61C334.04 384.763 341.05 368.123 341.05 345.704V324.754C324.365 343.864 294.569 353.419 251.656 353.419C212.272 353.419 179.805 338.989 154.255 310.13C128.704 281.271 115.929 245.892 115.929 203.991C115.929 162.091 128.704 126.63 154.255 97.5938C179.805 68.5411 212.272 54.0148 251.656 54.0148C286.78 54.0148 316.046 65.2323 339.461 87.6513H341.05V62.2786H435.243V352.87C435.243 398.814 420.513 434.282 391.06 459.267C361.623 484.269 322.776 496.778 274.527 496.778C196.459 496.778 146.075 469.387 123.376 414.623ZM234.332 156.022C222.095 168.531 215.98 184.526 215.98 204.023C215.98 223.505 221.822 239.395 233.522 251.702C245.238 264.017 260.677 270.167 279.855 270.167C298.301 270.167 313.459 263.92 325.346 251.412C337.226 238.911 343.169 223.101 343.169 203.991C343.169 184.518 337.046 168.531 324.817 156.022C312.579 143.521 297.592 137.267 279.855 137.267C261.759 137.267 246.585 143.521 234.332 156.022Z" fill="white"/>
</g>
<circle cx="280.5" cy="206.479" r="72" fill="white"/>
<path d="M317.742 137.602C304.655 128.087 288.702 122.479 271.401 122.479C226.556 122.479 190.147 160.207 190.147 206.659C190.147 208.999 190.295 211.339 190.443 213.672C176.149 232.847 171.935 249.996 178.556 262.157C183.822 271.664 195.413 276.813 211.514 276.813C215.425 276.813 219.639 276.498 224.149 275.877C245.516 272.915 270.646 263.4 294.871 248.906C310.217 239.706 323.763 229.417 334.747 218.974C340.161 213.833 344.827 208.846 348.893 203.85C349.493 203.076 350.092 202.293 350.7 201.671C365.594 182.497 371.311 164.105 364.09 151.321C357.469 139.006 341.064 134.326 317.742 137.602ZM186.385 257.477C182.475 250.31 184.726 239.553 192.554 226.923C196.317 242.515 204.293 256.541 215.121 267.298C200.679 268.081 190.443 264.651 186.385 257.477ZM350.248 186.548C346.486 170.803 338.509 156.93 327.674 146.019C342.123 145.237 352.499 148.666 356.418 155.841C360.328 162.854 358.069 173.926 350.248 186.548Z" fill="#0A0F2C"/>
<path d="M301.189 255.451C278.622 269.017 255.152 278.209 234.689 281.8C245.82 287.562 258.307 290.839 271.401 290.839C313.832 290.839 348.745 257.009 352.351 213.987C339.865 228.327 322.26 242.829 301.189 255.451Z" fill="#0A0F2C"/>
</svg>
