<svg width="636" height="274" viewBox="0 0 636 274" fill="none" xmlns="http://www.w3.org/2000/svg">
<mask id="mask0_68_511" style="mask-type:luminance" maskUnits="userSpaceOnUse" x="0" y="14" width="636" height="247">
<path d="M635.279 14H0V260.274H635.279V14Z" fill="white"/>
</mask>
<g mask="url(#mask0_68_511)">
<path d="M10.2971 214.499L38.732 200.573C43.9624 209.2 53.041 213.522 65.9757 213.522C72.0002 213.522 77.5894 211.583 82.7434 207.719C87.9127 203.871 90.5011 197.954 90.5011 189.976V182.524C84.3469 189.327 73.3669 192.724 57.546 192.724C43.0232 192.724 31.0659 187.593 21.6589 177.332C12.2518 167.071 7.54834 154.488 7.54834 139.585C7.54834 124.681 12.2518 112.068 21.6589 101.746C31.0659 91.4077 43.0232 86.2312 57.546 86.2312C70.496 86.2312 81.285 90.2243 89.9208 98.2029H90.5011V89.1936H125.228V192.541C125.228 208.887 119.799 221.5 108.949 230.38C98.0909 239.275 83.7666 243.726 65.9757 243.726C37.2202 243.726 18.6657 233.984 10.2971 214.499ZM51.1627 122.543C46.6577 126.987 44.4129 132.667 44.4129 139.585C44.4129 146.51 46.5661 152.167 50.8878 156.565C55.2019 160.947 60.8904 163.131 67.9609 163.131C74.7566 163.131 80.3458 160.917 84.7286 156.473C89.1038 152.014 91.2952 146.387 91.2952 139.585C91.2952 132.667 89.0351 126.987 84.5149 122.543C80.0099 118.084 74.497 115.855 67.9609 115.855C61.2798 115.855 55.683 118.084 51.1627 122.543Z" fill="white"/>
<path d="M138.153 177.332C128.746 167.071 124.042 154.488 124.042 139.585C124.042 124.681 128.746 112.068 138.153 101.746C147.56 91.4077 159.517 86.2312 174.04 86.2312C187.371 86.2312 198.359 90.4152 206.995 98.7831V89.1936H241.721V189.792H207.392V178.431H206.995C198.359 187.96 187.371 192.724 174.04 192.724C159.517 192.724 147.56 187.593 138.153 177.332ZM167.656 122.543C163.151 126.987 160.907 132.667 160.907 139.585C160.907 146.51 163.06 152.167 167.381 156.565C171.696 160.947 177.384 163.131 184.455 163.131C191.25 163.131 196.839 160.917 201.222 156.473C205.597 152.014 207.789 146.387 207.789 139.585C207.789 132.667 205.529 126.987 201.009 122.543C196.504 118.084 190.991 115.855 184.455 115.855C177.773 115.855 172.177 118.084 167.656 122.543Z" fill="white"/>
<path d="M247.774 189.792V21.1199H282.501V189.792H247.774Z" fill="white"/>
<path d="M295.437 177.332C286.03 167.071 281.326 154.488 281.326 139.585C281.326 124.681 286.03 112.068 295.437 101.746C304.844 91.4077 316.801 86.2312 331.324 86.2312C344.656 86.2312 355.643 90.4152 364.279 98.7831V89.1936H399.006V189.792H364.676V178.431H364.279C355.643 187.96 344.656 192.724 331.324 192.724C316.801 192.724 304.844 187.593 295.437 177.332ZM324.941 122.543C320.436 126.987 318.191 132.667 318.191 139.585C318.191 146.51 320.344 152.167 324.666 156.565C328.98 160.947 334.668 163.131 341.739 163.131C348.535 163.131 354.124 160.917 358.507 156.473C362.882 152.014 365.073 146.387 365.073 139.585C365.073 132.667 362.813 126.987 358.293 122.543C353.788 118.084 348.275 115.855 341.739 115.855C335.058 115.855 329.461 118.084 324.941 122.543Z" fill="white"/>
<path d="M521.577 189.792H479.612L457.438 161.359L435.265 189.792H393.3L436.242 137.233L399.378 89.1935H439.968L457.438 112.526L474.909 89.1935H515.499L478.635 137.233L521.577 189.792Z" fill="white"/>
<path d="M592.159 89.1935H632.2L553.126 240.794H513.116L547.842 174.095L500.196 89.1935H540.207L568.245 140.776L592.159 89.1935Z" fill="white"/>
</g>
<ellipse cx="341.779" cy="139.519" rx="24.9083" ry="24.9064" fill="white"/>
<mask id="mask1_68_511" style="mask-type:luminance" maskUnits="userSpaceOnUse" x="297" y="109" width="74" height="57">
<path d="M297.893 109.868H370.133V165.97H297.893V109.868Z" fill="white"/>
</mask>
<g mask="url(#mask1_68_511)">
<path d="M351.8 115.243C346.975 111.861 341.103 109.868 334.727 109.868C318.204 109.868 304.788 123.283 304.788 139.797C304.788 140.63 304.849 141.462 304.903 142.294C299.634 149.112 298.084 155.205 300.52 159.534C302.467 162.909 306.735 164.741 312.661 164.741C314.104 164.741 315.654 164.634 317.318 164.405C325.191 163.359 334.445 159.977 343.371 154.823C349.029 151.548 354.015 147.891 358.062 144.18C360.055 142.348 361.773 140.576 363.269 138.805C363.491 138.522 363.712 138.248 363.933 138.026C369.423 131.208 371.531 124.665 368.874 120.122C366.43 115.74 360.39 114.083 351.8 115.243ZM303.406 157.87C301.963 155.319 302.795 151.494 305.682 147.005C307.064 152.548 310.003 157.534 313.997 161.359C308.675 161.634 304.903 160.42 303.406 157.87ZM363.773 132.651C362.383 127.047 359.444 122.115 355.458 118.236C360.78 117.961 364.605 119.183 366.041 121.733C367.484 124.222 366.652 128.162 363.773 132.651Z" fill="#0A0F2C"/>
</g>
<mask id="mask2_68_511" style="mask-type:luminance" maskUnits="userSpaceOnUse" x="319" y="140" width="48" height="29">
<path d="M319.311 140.561H366.224V168.978H319.311V140.561Z" fill="white"/>
</mask>
<g mask="url(#mask2_68_511)">
<path d="M346.452 156.12C338.136 160.945 329.493 164.213 321.949 165.488C326.057 167.542 330.654 168.702 335.479 168.702C351.109 168.702 363.968 156.677 365.296 141.377C360.699 146.477 354.209 151.631 346.452 156.12Z" fill="#0A0F2C"/>
</g>
</svg>
