<svg width="376" height="324" viewBox="0 0 376 324" fill="none" xmlns="http://www.w3.org/2000/svg">
<path d="M278.38 29.0554C252.768 10.7756 221.546 0 187.687 0C99.9215 0 28.6663 72.4834 28.6663 161.727C28.6663 166.224 28.9559 170.72 29.2456 175.201C1.27097 212.039 -6.97658 244.986 5.98168 268.352C16.2873 286.616 38.9719 296.508 70.4834 296.508C78.1364 296.508 86.3839 295.903 95.2108 294.709C137.028 289.019 186.208 270.739 233.62 242.893C263.653 225.218 290.164 205.45 311.66 185.387C322.255 175.511 331.387 165.929 339.345 156.332C340.518 154.843 341.692 153.339 342.881 152.145C372.03 115.307 383.22 79.9721 369.088 55.413C356.129 31.7532 324.023 22.7606 278.38 29.0554ZM21.3029 259.359C13.6499 245.591 18.0557 224.923 33.377 200.659C40.7403 230.614 56.3512 257.56 77.5418 278.228C49.2775 279.732 29.2456 273.142 21.3029 259.359ZM341.997 123.09C334.634 92.8408 319.023 66.1886 297.817 45.2266C326.097 43.7226 346.403 50.312 354.071 64.0955C361.724 77.5689 357.303 98.8411 341.997 123.09Z" fill="#884389"/>
<path d="M245.984 255.467C201.819 281.53 155.886 299.189 115.837 306.089C137.622 317.159 162.06 323.454 187.687 323.454C270.726 323.454 339.054 258.459 346.113 175.805C321.675 203.356 287.221 231.218 245.984 255.467Z" fill="#884389"/>
</svg>
