<svg width="636" height="274" viewBox="0 0 636 274" fill="none" xmlns="http://www.w3.org/2000/svg">
<mask id="mask0_58_1113" style="mask-type:luminance" maskUnits="userSpaceOnUse" x="181" y="207" width="271" height="67">
<path d="M451.537 207.183H181.788V273.638H451.537V207.183Z" fill="white"/>
</mask>
<g mask="url(#mask0_58_1113)">
<path d="M185.709 260.287L193.405 256.531C194.825 258.852 197.292 260.012 200.796 260.012C202.423 260.012 203.927 259.493 205.317 258.455C206.722 257.416 207.424 255.813 207.424 253.66V251.644C205.752 253.477 202.782 254.393 198.506 254.393C194.573 254.393 191.336 253.011 188.793 250.24C186.243 247.453 184.976 244.04 184.976 240.009C184.976 235.977 186.243 232.572 188.793 229.778C191.336 226.968 194.573 225.563 198.506 225.563C202.003 225.563 204.927 226.647 207.271 228.8H207.424V226.357H216.831V254.332C216.831 258.768 215.35 262.188 212.403 264.593C209.47 266.991 205.599 268.197 200.796 268.197C193.016 268.197 187.984 265.555 185.709 260.287ZM196.795 235.397C195.574 236.603 194.963 238.138 194.963 240.009C194.963 241.887 195.543 243.421 196.704 244.62C197.864 245.804 199.399 246.392 201.316 246.392C203.164 246.392 204.683 245.796 205.866 244.59C207.042 243.368 207.638 241.841 207.638 240.009C207.638 238.138 207.027 236.603 205.805 235.397C204.584 234.198 203.087 233.595 201.316 233.595C199.521 233.595 198.017 234.198 196.795 235.397Z" fill="#0A0F2C"/>
<path d="M220.329 250.24C217.778 247.453 216.511 244.04 216.511 240.009C216.511 235.977 217.778 232.572 220.329 229.778C222.871 226.968 226.109 225.563 230.041 225.563C233.645 225.563 236.615 226.708 238.959 228.984V226.357H248.366V253.599H239.082V250.514H238.959C236.615 253.103 233.645 254.393 230.041 254.393C226.109 254.393 222.871 253.011 220.329 250.24ZM228.331 235.397C227.109 236.603 226.498 238.138 226.498 240.009C226.498 241.887 227.078 243.421 228.239 244.62C229.4 245.804 230.934 246.392 232.851 246.392C234.699 246.392 236.218 245.796 237.402 244.59C238.578 243.368 239.173 241.841 239.173 240.009C239.173 238.138 238.562 236.603 237.341 235.397C236.119 234.198 234.622 233.595 232.851 233.595C231.057 233.595 229.552 234.198 228.331 235.397Z" fill="#0A0F2C"/>
<path d="M250.001 253.599V226.357H259.408V229.228H259.499C261.943 226.785 264.546 225.563 267.318 225.563C269.288 225.563 271.144 225.976 272.877 226.785C274.625 227.602 275.939 228.862 276.817 230.572C279.581 227.235 282.589 225.563 285.827 225.563C288.736 225.563 291.233 226.38 293.31 228.006C295.402 229.64 296.456 232.19 296.456 235.672V253.599H287.049V238.207C287.049 236.764 286.651 235.55 285.857 234.573C285.063 233.595 283.872 233.107 282.284 233.107C280.894 233.107 279.841 233.527 279.108 234.359C278.39 235.199 277.993 236.191 277.916 237.352V253.599H268.54V238.207C268.54 236.764 268.143 235.55 267.349 234.573C266.555 233.595 265.348 233.107 263.745 233.107C262.294 233.107 261.21 233.565 260.477 234.481C259.759 235.382 259.408 236.451 259.408 237.688V253.599H250.001Z" fill="#0A0F2C"/>
<path d="M298.486 211.179C299.586 210.08 300.884 209.53 302.396 209.53C303.923 209.53 305.236 210.08 306.336 211.179C307.435 212.278 307.985 213.592 307.985 215.119C307.985 216.646 307.435 217.959 306.336 219.058C305.236 220.142 303.923 220.677 302.396 220.677C300.884 220.677 299.586 220.142 298.486 219.058C297.387 217.959 296.837 216.646 296.837 215.119C296.837 213.592 297.387 212.278 298.486 211.179ZM297.57 226.357V253.599H306.977V226.357H297.57Z" fill="#0A0F2C"/>
<path d="M308.877 253.599V226.357H318.284V229.228H318.376C320.819 226.785 323.423 225.563 326.194 225.563C327.538 225.563 328.867 225.746 330.195 226.113C331.516 226.464 332.791 227.014 334.013 227.762C335.235 228.495 336.22 229.549 336.976 230.908C337.747 232.274 338.136 233.862 338.136 235.672V253.599H328.729V238.207C328.729 236.787 328.279 235.542 327.386 234.481C326.485 233.427 325.309 232.893 323.843 232.893C322.438 232.893 321.155 233.443 319.994 234.542C318.849 235.641 318.284 236.863 318.284 238.207V253.599H308.877Z" fill="#0A0F2C"/>
<path d="M338.022 260.287L345.719 256.531C347.139 258.852 349.605 260.012 353.11 260.012C354.737 260.012 356.241 259.493 357.63 258.455C359.035 257.416 359.738 255.813 359.738 253.66V251.644C358.066 253.477 355.095 254.393 350.82 254.393C346.887 254.393 343.65 253.011 341.107 250.24C338.557 247.453 337.289 244.04 337.289 240.009C337.289 235.977 338.557 232.572 341.107 229.778C343.65 226.968 346.887 225.563 350.82 225.563C354.317 225.563 357.241 226.647 359.585 228.8H359.738V226.357H369.145V254.332C369.145 258.768 367.664 262.188 364.716 264.593C361.784 266.991 357.913 268.197 353.11 268.197C345.33 268.197 340.298 265.555 338.022 260.287ZM349.109 235.397C347.887 236.603 347.277 238.138 347.277 240.009C347.277 241.887 347.857 243.421 349.018 244.62C350.178 245.804 351.713 246.392 353.629 246.392C355.477 246.392 356.997 245.796 358.18 244.59C359.356 243.368 359.952 241.841 359.952 240.009C359.952 238.138 359.341 236.603 358.119 235.397C356.897 234.198 355.401 233.595 353.629 233.595C351.835 233.595 350.331 234.198 349.109 235.397Z" fill="#0A0F2C"/>
<path d="M395.054 233.259C393.283 233.259 391.755 233.924 390.473 235.244C389.205 236.55 388.579 238.115 388.579 239.948C388.579 241.826 389.205 243.421 390.473 244.742C391.755 246.048 393.283 246.697 395.054 246.697C395.886 246.697 396.68 246.598 397.436 246.392C398.207 246.17 398.78 245.956 399.147 245.75L399.605 245.414L402.812 251.95C402.544 252.133 402.186 252.362 401.743 252.622C401.315 252.889 400.307 253.248 398.719 253.691C397.146 254.156 395.466 254.393 393.68 254.393C389.663 254.393 386.143 252.988 383.112 250.178C380.096 247.369 378.592 244.002 378.592 240.07C378.592 236.1 380.096 232.694 383.112 229.839C386.143 226.991 389.663 225.563 393.68 225.563C395.466 225.563 397.131 225.777 398.658 226.205C400.185 226.632 401.262 227.06 401.895 227.487L402.812 228.129L399.605 234.542C398.444 233.687 396.925 233.259 395.054 233.259Z" fill="#0A0F2C"/>
<path d="M404.453 250.362C401.437 247.674 399.933 244.223 399.933 240.009C399.933 235.794 401.499 232.335 404.637 229.625C407.79 226.922 411.692 225.563 416.334 225.563C420.893 225.563 424.741 226.93 427.879 229.656C431.01 232.389 432.583 235.84 432.583 240.009C432.583 244.185 431.041 247.628 427.971 250.331C424.917 253.042 421.038 254.393 416.334 254.393C411.448 254.393 407.485 253.049 404.453 250.362ZM411.753 235.397C410.531 236.603 409.921 238.138 409.921 240.009C409.921 241.887 410.501 243.421 411.661 244.62C412.822 245.804 414.357 246.392 416.273 246.392C418.121 246.392 419.641 245.796 420.824 244.59C422 243.368 422.596 241.841 422.596 240.009C422.596 238.138 421.985 236.603 420.763 235.397C419.541 234.198 418.045 233.595 416.273 233.595C414.479 233.595 412.975 234.198 411.753 235.397Z" fill="#0A0F2C"/>
<path d="M438.302 242.238C440.013 242.238 441.456 242.841 442.639 244.04C443.815 245.223 444.411 246.659 444.411 248.346C444.411 250.018 443.815 251.446 442.639 252.622C441.456 253.798 440.013 254.393 438.302 254.393C436.653 254.393 435.225 253.798 434.026 252.622C432.843 251.446 432.255 250.018 432.255 248.346C432.255 246.659 432.843 245.223 434.026 244.04C435.225 242.841 436.653 242.238 438.302 242.238Z" fill="#0A0F2C"/>
</g>
<mask id="mask1_58_1113" style="mask-type:luminance" maskUnits="userSpaceOnUse" x="0" y="0" width="636" height="247">
<path d="M635.279 0H0V246.274H635.279V0Z" fill="white"/>
</mask>
<g mask="url(#mask1_58_1113)">
<path d="M10.2971 200.499L38.732 186.573C43.9624 195.2 53.041 199.522 65.9757 199.522C72.0002 199.522 77.5894 197.583 82.7434 193.719C87.9127 189.871 90.5011 183.954 90.5011 175.976V168.524C84.3469 175.327 73.3669 178.724 57.546 178.724C43.0232 178.724 31.0659 173.593 21.6589 163.332C12.2518 153.071 7.54834 140.488 7.54834 125.585C7.54834 110.681 12.2518 98.068 21.6589 87.7455C31.0659 77.4077 43.0232 72.2312 57.546 72.2312C70.496 72.2312 81.285 76.2243 89.9208 84.2029H90.5011V75.1936H125.228V178.541C125.228 194.887 119.799 207.5 108.949 216.38C98.0909 225.275 83.7666 229.726 65.9757 229.726C37.2202 229.726 18.6657 219.984 10.2971 200.499ZM51.1627 108.543C46.6577 112.987 44.4129 118.667 44.4129 125.585C44.4129 132.51 46.5661 138.167 50.8878 142.565C55.2019 146.947 60.8904 149.131 67.9609 149.131C74.7566 149.131 80.3458 146.917 84.7287 142.473C89.1038 138.014 91.2952 132.387 91.2952 125.585C91.2952 118.667 89.0351 112.987 84.5149 108.543C80.0099 104.084 74.497 101.855 67.9609 101.855C61.2798 101.855 55.683 104.084 51.1627 108.543Z" fill="#0A0F2C"/>
<path d="M138.153 163.332C128.746 153.071 124.042 140.488 124.042 125.585C124.042 110.681 128.746 98.068 138.153 87.7455C147.56 77.4077 159.517 72.2312 174.04 72.2312C187.371 72.2312 198.359 76.4152 206.995 84.7831V75.1936H241.721V175.792H207.392V164.431H206.995C198.359 173.96 187.371 178.724 174.04 178.724C159.517 178.724 147.56 173.593 138.153 163.332ZM167.656 108.543C163.151 112.987 160.907 118.667 160.907 125.585C160.907 132.51 163.06 138.167 167.381 142.565C171.696 146.947 177.384 149.131 184.455 149.131C191.25 149.131 196.839 146.917 201.222 142.473C205.597 138.014 207.789 132.387 207.789 125.585C207.789 118.667 205.529 112.987 201.009 108.543C196.504 104.084 190.991 101.855 184.455 101.855C177.773 101.855 172.177 104.084 167.656 108.543Z" fill="#0A0F2C"/>
<path d="M247.774 175.792V7.11987H282.501V175.792H247.774Z" fill="#0A0F2C"/>
<path d="M295.437 163.332C286.03 153.071 281.326 140.488 281.326 125.585C281.326 110.681 286.03 98.068 295.437 87.7455C304.844 77.4077 316.801 72.2312 331.324 72.2312C344.656 72.2312 355.643 76.4152 364.279 84.7831V75.1936H399.006V175.792H364.676V164.431H364.279C355.643 173.96 344.656 178.724 331.324 178.724C316.801 178.724 304.844 173.593 295.437 163.332ZM324.941 108.543C320.436 112.987 318.191 118.667 318.191 125.585C318.191 132.51 320.344 138.167 324.666 142.565C328.98 146.947 334.668 149.131 341.739 149.131C348.535 149.131 354.124 146.917 358.507 142.473C362.882 138.014 365.073 132.387 365.073 125.585C365.073 118.667 362.813 112.987 358.293 108.543C353.788 104.084 348.275 101.855 341.739 101.855C335.058 101.855 329.461 104.084 324.941 108.543Z" fill="#0A0F2C"/>
<path d="M521.577 175.792H479.612L457.438 147.359L435.265 175.792H393.3L436.242 123.233L399.378 75.1935H439.968L457.438 98.526L474.909 75.1935H515.499L478.635 123.233L521.577 175.792Z" fill="#0A0F2C"/>
<path d="M592.159 75.1935H632.2L553.126 226.794H513.116L547.842 160.095L500.196 75.1935H540.207L568.245 126.776L592.159 75.1935Z" fill="#0A0F2C"/>
</g>
<ellipse cx="341.779" cy="125.519" rx="24.9083" ry="24.9064" fill="#0A0F2C"/>
<mask id="mask2_58_1113" style="mask-type:luminance" maskUnits="userSpaceOnUse" x="297" y="95" width="74" height="57">
<path d="M297.893 95.8684H370.133V151.97H297.893V95.8684Z" fill="white"/>
</mask>
<g mask="url(#mask2_58_1113)">
<path d="M351.8 101.243C346.975 97.8611 341.103 95.8684 334.727 95.8684C318.204 95.8684 304.788 109.283 304.788 125.798C304.788 126.63 304.849 127.462 304.903 128.294C299.634 135.112 298.084 141.205 300.52 145.534C302.467 148.909 306.735 150.741 312.66 150.741C314.103 150.741 315.654 150.634 317.318 150.405C325.19 149.359 334.445 145.977 343.371 140.823C349.029 137.548 354.015 133.891 358.061 130.18C360.054 128.348 361.772 126.576 363.269 124.805C363.49 124.523 363.712 124.248 363.933 124.026C369.423 117.208 371.531 110.665 368.873 106.122C366.43 101.74 360.39 100.083 351.8 101.243ZM303.406 143.87C301.963 141.32 302.795 137.494 305.681 133.005C307.063 138.548 310.003 143.534 313.997 147.359C308.675 147.634 304.903 146.42 303.406 143.87ZM363.773 118.651C362.383 113.047 359.443 108.115 355.458 104.236C360.78 103.962 364.605 105.183 366.041 107.733C367.484 110.222 366.651 114.162 363.773 118.651Z" fill="white"/>
</g>
<mask id="mask3_58_1113" style="mask-type:luminance" maskUnits="userSpaceOnUse" x="319" y="126" width="48" height="29">
<path d="M319.311 126.561H366.224V154.978H319.311V126.561Z" fill="white"/>
</mask>
<g mask="url(#mask3_58_1113)">
<path d="M346.451 142.12C338.136 146.945 329.493 150.213 321.949 151.488C326.057 153.542 330.653 154.703 335.479 154.703C351.109 154.703 363.967 142.677 365.296 127.377C360.699 132.477 354.209 137.631 346.451 142.12Z" fill="white"/>
</g>
</svg>
